# xmcd
#
# Track frame offsets: 
#        150
#        25426
#        45966
#        68578
#        85988
#        110623
#        132068
#        156196
#        179699
#        205934
#
# Disc length: 2987 seconds
#
# Revision: 0
# Processed by: cddbd v1.5.2PL0 Copyright (c) Steve Scherf et al.
# Submitted via: ExactAudioCopy v1.0b3
#
DISCID=830ba90a
DTITLE=Tuan Vu, VA - Tuyet pham Song ca
DYEAR=1994
DGENRE=
TTITLE0=Tuan Vu, Nhu Mai - Que huong bon mua
TTITLE1=Tuan Vu, Phuong Mai - Duong tinh doi nga
TTITLE2=Tuan Vu, Son Tuyen - Gap nhau lam ngo
TTITLE3=Tuan Vu, Giao Linh - Tuyet lanh
TTITLE4=Tuan Vu, Thanh Tuyen - Han tinh
TTITLE5=Tuan Vu, Nhu Mai - Thiep hong anh viet ten em
TTITLE6=Tuan Vu, Phuong Mai - Dau chan ky niem
TTITLE7=Tuan Vu, Son Tuyen - Anh tien tuyen em hau phuong
TTITLE8=Tuan Vu, Giao Linh - Mua pensée nở
TTITLE9=Tuan Vu, Thien Trang - Neu anh ve ben em
EXTD=
EXTT0=
EXTT1=
EXTT2=
EXTT3=
EXTT4=
EXTT5=
EXTT6=
EXTT7=
EXTT8=
EXTT9=
PLAYORDER=
